<svg xmlns="http://www.w3.org/2000/svg" xmlns:xlink="http://www.w3.org/1999/xlink" xmlns:dc="http://purl.org/dc/elements/1.1/" xmlns:cc="http://web.resource.org/cc/" xmlns:rdf="http://www.w3.org/1999/02/22-rdf-syntax-ns#" baseProfile="full" width="480" height="360" style="zoom:1">
  <svg xmlns="http://www.w3.org/2000/svg" width="400" height="319.5" viewBox="0 0 0 0 400 319.5">
    <path d="M233.3 19.3c-3 .8-6.4 2.4-8.2 4-.8.6-1.2.7-2.4.5-5.4-.7-9.4-.5-17.1 1l-6.4.8c-5.6.6-9.6.2-21.2-2.1-18.2-3.6-27-2.8-34.7 3.2-2.3 1.7-2.4 1.7-5.7.2-16.7-8-38.6 1.6-43.5 19-.8 2.6-.6 2.5-5.8 2.8-4.1.2-10 1-13 2-1 .3-.5 1.3 1.6 3.3 4.8 4.6 8 9 9.7 13.7 1.3 3.5.7 4-2.4 2C73 61.8 52 60.1 48.4 66.8c-1.1 2 0 4 6 10.7 2.4 2.6 4 5 4.2 6.4.2.6.7 1.7 1.2 2.5 4 6.7 4.1 7.7.4 7.7-2.2 0-9.8 2.1-13.6 3.7-18 7.8-23.4 25.7-11 36.8a41.1 41.1 0 0 0 9.1 5.5 85 85 0 0 0 9.6 3.4l2.4.7.2 4c.7 12.7 6.8 19.5 26.5 29.3a727 727 0 0 1 14.3 7.3c6.3 3.3 17.2 12 23.2 18.6 7 7.7 9.1 10.8 12.6 19.3a391.6 391.6 0 0 0 5.2 12.2c4.7 10.9 9.2 19 15 27.4a64.6 64.6 0 0 0 31.4 25.3 25.5 25.5 0 0 0 12.3.4c.7-.3 2.4-.6 3.9-.7 11.9-.7 25.4-9.4 33.9-21.8 6-8.9 11.3-18.9 15-28.4a721.4 721.4 0 0 0 11.9-32.4l1.3-3.2c9.5-22.7 22.3-36.2 39.5-42 3-1 4.2-1.3 9.6-2.6 2.4-.5 9.9-1.7 16.9-2.7 23.3-3.1 29-4.9 34.3-10.8 9.9-11-.8-27.2-19-28.9-4.7-.4-5.4-.8-4.5-2.2 6.6-10.4 7-27.6.8-37-2.2-3.2-2.3-3.3-6.5-2.4-4.3 1-7.9 2.1-17.5 5.6-6.3 2.2-8.5 2.6-11.8 1.9-2.1-.4-2.7-1.4-1.8-2.8 1.9-2.6 2.1-3.5 2.3-8.9.3-5.6.3-5.6 2.8-8.8 3.8-4.7 4.8-7.4 4-10.7-1.2-4.8-8.2-7.6-14.6-5.9l-4.3 1.2c-16.8 4.6-25.4 5-35 1.5-3.4-1.2-3.7-1.6-3.3-4.7 1.6-14.1-9.6-25.4-22-22m1 9.6c-2.1 2-5.2 6-5.2 6.9l-.8 2.3c-2.2 5.5-2.2 16.9.1 36 .2 1.5.4 5.2.4 8.3v5.7l-.8-.8a54.7 54.7 0 0 0-10.1-6.8c-1.7-1-2.7-1.4-4.4-1.8-7.7-2-11.7-4.8-12.4-8.7a33.2 33.2 0 0 0-2.7-7.6l-.8-1.3-.8-1.3c0-.3-2-3.2-2.5-3.4-.2-.2-.4-.4-.4-.6 0-.2-.3-.8-.8-1.4l-.8-1 1.9-.3a31.4 31.4 0 0 0 8.5-2.5c1.5-.3 9.1-5 11.1-6.9l7-6.7c7.8-7.7 11.4-10.2 14.5-10.2h1.3l-2.3 2.1m-68.6 0c1 .4 8.1 1.8 10.8 2.2.9 0 2.2.4 2.9.6a57.2 57.2 0 0 0 26.5-.2 36 36 0 0 0 8.6-2.6c.7-.3 3.7-.7 3.7-.4l-.6.9-1.9 2.1-3.5 4a47 47 0 0 1-20 14c-2.5.8-2.5.8-4-.8a64 64 0 0 0-9-8.2c-1-.8-3.4-2.2-5-3-4.4-1.9-16.6-1.6-21 .6-1.3.7-1.5.6-3.2-2-.8-1.3-2.1-3-2.9-3.6-1.6-1.5-1.4-2 1.5-2.7a40 40 0 0 0 3.3-1c1.5-.6 12.1-.5 13.8.1m6.4 18.2c6.1 3.4 18 16.3 18 19.6l.8 2c.4.9.9 2.4 1 3.3 1.5 6.7 6 10.6 15.8 13.6A36.6 36.6 0 0 1 225 95l1.4 1.2 1.2 1a62.2 62.2 0 0 0 6.7 5c4.6 3.1 6.8 6.1 4.7 6.1a28.7 28.7 0 0 1-18.7 2c-4.4-1.3-7-2.7-12.4-6.8-9.8-7.4-13.3-9-18-7.8-1.7.4-7.4.6-6 .3.4-.1 1-1.2 1.5-2.6 2.1-5.8 1-15.6-2.8-24.6a102.7 102.7 0 0 0-9.2-15.8 33.7 33.7 0 0 0-6.2-5.8c-2-1.4 2.1-1.5 4.8 0m-14 .4l1.2 2.7c.9 2.4 2.6 5.2 5.9 9.8 2.4 3.3 4.4 6.4 4.4 6.8l2.3 5.5c1.8 3.8 3 20 1.9 27a140.6 140.6 0 0 1-4.2 20.9c0 .4-.1.8-.3 1a157.2 157.2 0 0 1-4 10.5c-2.1 5.4-2.2 5.4-3.2-.7a49 49 0 0 0-2-8.9c-1.5-4.8-2.4-7-2.8-7.5-.6-.7-.6-2.1 0-2.5.2-.1 1-1.2 1.5-2.3l1.6-3.2c.3-.6.7-1.6.8-2.2.1-.6.3-1.3.5-1.5l.6-1.9.8-3.7c.5-1.6.6-3.4.6-9a35.6 35.6 0 0 0-2.5-16.2 53 53 0 0 0-10.8-18.1l-1.3-1.7a6 6 0 0 0-1.4-1.5c-1.3-.5-.2-2 1.4-2 .5 0 1.6-.2 2.5-.5 4.8-1.4 6.2-1.5 6.6-.8m98 2.8l1 .8c.3.4 3.9 2.2 4.3 2.2l1.2.4a52.6 52.6 0 0 0 28.4-.6c1-.1 3-.6 4.5-1 4-1.2 4.2-.3.5 1.6a57 57 0 0 0-13.5 13 160.7 160.7 0 0 0-9.8 12.8l-1.6 1.8c-2.4 3-8.5 9-13.4 13.1a787.2 787.2 0 0 0-7.7 6.4l-2 1.5c-1.6 1.5-1.7 1.5-4.8-1.6-2.9-2.9-3.1-3.5-2-5 .3-.2 1-1.6 1.5-3l1.4-3.3 1-2.4a40 40 0 0 1 1.8-5l1-3.3c.2-1.4.9-4 1.3-5.6a62.1 62.1 0 0 0 1.9-8.1c.4-.8 1.4-5.5 2-8.7.2-1.4.5-2.9.7-3.3.2-.3.4-1 .4-1.3 0-1.7.6-2.2 1.9-1.4m-113.8 1.2c.2 2 1.1 4 5.3 11.7a62.8 62.8 0 0 1 6.1 15 60.9 60.9 0 0 1 1.1 19.9c-.4 5.6-1.6 9-2.4 7a75.4 75.4 0 0 0-23-24.9l-2-1.3-2.9-1.7a52.2 52.2 0 0 0-9.4-4.6 51.4 51.4 0 0 0-20-4.5c-4-.2-4.1-.3-4.6-3.2a21.9 21.9 0 0 0-2.7-7 5 5 0 0 0-.8-1.5C86 55 86 55 89 55c4.4 0 8 1.3 10.9 4a38.4 38.4 0 0 0 3.2 2.8c.5 1.3 7 2.7 8.7 1.8l1.9-.8a38 38 0 0 0 9.1-6.9l2-1.2a9 9 0 0 1 4-1.6c2-.4 6.8-1.4 10.4-2.3 2.1-.5 3-.3 3.1.8m195 30.5c.7 5.4-.2 20.4-1.2 21.5-.4.4-1.4-.4-1.4-1.1 0-1.1-2.8-6-4.2-7.4-2.6-2.5-5-.5-4 3.5a67.7 67.7 0 0 1 2 16.2 54.7 54.7 0 0 1-2.3 11.1c-.6 3.3-5 11.3-7.9 14.5-5.4 6-14.7 9.2-16.8 5.8a5 5 0 0 0-.9-1.2l-.9-1.4a25.6 25.6 0 0 0-10.5-9c0-.2-1.4-.8-2.9-1.4-3.2-1.2-3.4-1.7-.8-2 6.6-.8 13.5-5.7 16.6-11.9l1.5-2.8v-4.2c0-4.5-1-8.2-3.4-13.4A25.7 25.7 0 0 1 298 87c.3-3.3 1-3.7 3-1.8 1 1 3 2.5 4 3 4.8 2.5 6.6 3 11.4 3 5.5 0 9.4-1.3 13.6-4.7 1.9-1.4 5.2-5.3 5.2-5.9 0-.5 1-1.7 1.4-1.6.2 0 .6 1.5.8 3.1M69.4 96.5a165 165 0 0 1 10.5 3.5 50.4 50.4 0 0 0 7.2 2.8c.3 0 2.7 1.2 5.2 2.4a45.7 45.7 0 0 0 5.6 2.4c.1.2 2.4 1.4 5.2 2.8a92.4 92.4 0 0 1 12 6.7l2.7 1.7a26.3 26.3 0 0 1 4.2 2.6l4 2.7a86.4 86.4 0 0 1 8.6 6.3 42.5 42.5 0 0 0 4.6 3.8 135 135 0 0 1 17 17.6 66 66 0 0 1 10.3 18.3c2.6 6 1 17-3.5 22.5a47.4 47.4 0 0 1-13 10.7c-1 .7-3.3 1.7-3.5 1.4-1.5-1.5-2-4.8-1-7 .8-1.8 1.3-4 2.2-8.6.8-4.8 0-13.3-2.1-19.3-5.4-15.8-21.5-29.3-42.4-35.8a67.5 67.5 0 0 0-11.8-3 113.2 113.2 0 0 0-18.4-2.2 42.4 42.4 0 0 1-17.8-4.2c-6-3-6.4-11.2-.7-18.9 1.6-2 1.8-2.3 4.8-5.1l2.5-2.6c2.4-2.7 3.4-2.9 7.6-1.5m120.2 7.5c3.3.9 5 2.2 12.8 10a35.7 35.7 0 0 0 12 8.9c2.7 2.3 13.4 2.4 18.5 0l2.7-1.2c3-1.3 7.4-6 8-8.4.3-1 .8-1 1.6.5 1.2 2 .7 13.4-.8 16.2-.2.4-1.3.6-4.4.9a36.7 36.7 0 0 0-14.6 4.2c-1 0-4.2 2.5-6.9 5.3-5.7 6.1-7.1 25-2.4 31.1 2.8 3.6 2.4 11-.9 17.6-.6 1.2-1.1 2.5-1.1 2.7l-.8 1.4-1.5 2.8c-.9 2.2-1 2.1-2.9-.6-.8-1.2-1.7-2.4-2-2.6l-1.3-1.5-1-1.2 1-2.8A60.7 60.7 0 0 0 209 173l.8-5.3c.4-2.7.4-13.7 0-16.1l-.8-4.6c-.6-3.9-1.2-5.9-2.3-7.4-1.2-1.8-3.5-4-4.4-4.3-.3-.1-.9-.4-1.1-.7-2.3-2-13.2-2.1-18.3-.2l-2.8.8c-2 .4-4.3 1.2-6.3 2l-2 .8c-.3 0-1.1.4-1.9.8-2.2 1.3-2.5 1-1.2-1.2a109 109 0 0 0 3.4-6.6 241.7 241.7 0 0 0 5.6-11.5l1-3a69.5 69.5 0 0 0 2.8-10.4c.2-2 4.3-3 8-2m149.2 22.6a34 34 0 0 0 10.7 11.1c.4.5 3.3 2 4.9 2.5 5.4 1.6-4 4.6-19.3 6a67 67 0 0 0-7.4 1c-1.1.4-1.2-.2-.1-1.3a49.4 49.4 0 0 0 7.2-11.7l.6-1.5c.8-1.6 2-6 2-7.4 0-1.1.2-.9 1.4 1.3m-57 12.5l2.3.7a27.6 27.6 0 0 1 13 8.7c3.5 4.9 3.6 4.5-2.3 6.9-1.2.4-2.2 1-2.3 1-.1.2-.9.7-1.7 1a27 27 0 0 0-3 1.6l-1.5 1-1.4-.8c-7.9-4.5-20.1-.2-27.6 10a262 262 0 0 1-2.4 3.1l-.8 1.6-.8 1.4c-.4.3-2.2 4.3-2.2 4.8l-.4 1c-.5.5-2.1 4.7-2.1 5.3 0 .3-.4 1.2-.8 2.1-.4 1-.9 2.3-1 2.9-.1.6-.3 1.2-.5 1.3l-.5 1.4c0 .8-.3 1.4-.5 1.5l-.9 2.2a75.1 75.1 0 0 1-2.6 7.2c-.3 1-1 2.4-1.3 3.1l-1.4 3.5c-.3 1.1-.8 2.2-1 2.4l-.7 1.6a253.1 253.1 0 0 1-23.3 42c-4.2 6.4-9.7 8.9-11.3 5a18.4 18.4 0 0 1-1.7-7.8c-.5-8.9-7.4-10.6-12.3-3.1-4 6.3-10.2 5-18.7-4.2a128.5 128.5 0 0 0-3.6-4 79.3 79.3 0 0 1-7.5-11.8c-.7-1.2-1.4-2.4-1.7-2.6-.2-.2-.4-.5-.4-.8 0-.5-.9-2.3-1.8-3.8l-1-1.9c0-.4-.8-2.2-1.6-3.8-5-10.6-4.8-10-2-11.2l4-1.5a24.1 24.1 0 0 0 5.1-2.5c6.9-3.1 13-10.7 15.4-19.1.6-2.2 1-9.6.5-11.2-.4-1.3.5-2.4 2.2-3 .4 0 1-.4 1.3-.7 1-.9 7.5-.8 8.4.1.4.4 1 1 1.4 1.2 1 .8.8 5.5-.2 7.4-1 1.8-.8 6 .3 8.3a24.8 24.8 0 0 0 7.6 7.7c.2.3 1.2 1 2 1.6 2.5 1.5 5.6 4.7 6.2 6.3 1 3 1.2 3.8.7 4.5l-1 1.7a43.4 43.4 0 0 1-2.8 4.8l-.7 1.2c-2 2.7-4.4 7.4-4.4 8.3 0 2.6 2 1.5 7.4-4.2a179.6 179.6 0 0 0 15.2-20.1c6-9.1 9-19 7.3-23.9-.3-.7-.6-2-.7-2.7-.1-.8-.7-2.8-1.3-4.5-1.4-4-1.9-8-1.4-12.3.9-8.6 5.9-13.5 15.7-15.4 4.7-.9 40.3-1.3 43-.5m-198.5 2.6a27 27 0 0 1 7 2.3c.5 0 7.4 3.5 9.6 4.8a72.5 72.5 0 0 1 22.3 25.3 251.8 251.8 0 0 1 14.1 30.2c.4.8 1.2 2.5 1.6 3.7a17 17 0 0 0 1.3 2.8l1.1 2.2c2.1 5 6.2 13.5 9.3 19.3a68.7 68.7 0 0 0 26 28.5c7 3.4 14.1 1 17.3-5.8 1-2.1 1.2-2.4 2.5-3 2.4-1.2 2.6-.9 2.6 5.3v5l1.2 2.3c2.4 4.7 7.6 6.2 12.9 3.7 3.5-1.7 6.6-5 14.5-15.8a24 24 0 0 0 1.5-2.4c.3-.7 1-1.7 1.5-2.3l.9-1.4a139.8 139.8 0 0 0 5.1-8.7l2.3-4a458 458 0 0 0 9-17.7c2.3-5.6 4.4-11.3 8-22a98 98 0 0 1 8.1-20.7c4-6.7 10.7-11 17.4-11.2 3 0 3.1.1.2 2.5a78 78 0 0 0-22.8 31.3c-1.4 2.7-4.6 11.4-9.1 25a218 218 0 0 1-14.2 35.5 61.5 61.5 0 0 1-36 29.7c-3 .8-9.1.1-13.1-1.6-14.5-6.2-25.7-19.6-36.3-43.2l-1.4-3.2a173.6 173.6 0 0 1-5.4-12.8l-1-2.2a346.6 346.6 0 0 0-4.2-10.9l-1.4-3.5a143.2 143.2 0 0 1-3.2-7l-.5-1a92 92 0 0 0-5.8-12.5 243 243 0 0 1-3.2-5.9c-.8-1.1-2-3.2-3.4-5.5a104.9 104.9 0 0 0-11.2-14.5 67 67 0 0 0-27.6-18c-.5-.3-5.2-1.8-6.7-2-1.2-.3-1.5-.7-.8-1 .6-.3 8.5 0 10 .4m112.6.8c1.1.7 2.7 2.7 3 4l.6 1.5c.2.5 1.1 5.2 1.9 9.9a197.3 197.3 0 0 1-.6 25.8c-.2 3.2-1.2 3.3-2.8.1-.9-1.7-.9-2 0-5.3.7-2.6.6-7.7-.2-9.1l-.9-1.7c-.5-1.3-3.8-4.2-5.5-5-5.6-2.8-10.5-2.3-15.4 1.8-2 1.6-2 1.6-2.2.8A69.6 69.6 0 0 0 165 149c-.7-1-1.2-1.8-1.1-2a137.9 137.9 0 0 1 14.8-3.7c6.3-1.7 14.6-2.1 17-.7M63.6 147l2.4.7c.5.3 2.4.9 4.1 1.4a43.2 43.2 0 0 1 6.9 2.3l1.5.6 6 2.7a50.2 50.2 0 0 1 11 7 88.8 88.8 0 0 1 18 20.5c0 .2 1.5 2.8 1.8 3.1l1 2c0 .5-1 .2-1.3-.3a82.6 82.6 0 0 0-11.3-8c-3.6-2.2-10.5-5.7-21.1-10.7a64.7 64.7 0 0 1-9.8-5.1 29.4 29.4 0 0 1-9.2-9.5 28 28 0 0 1-2.4-6.6c.2-.5.5-.5 2.4-.1" fill-rule="evenodd" fill="#616161"/>
  </svg>
</svg>
